
<global>
amp_veltrack=0
ampeg_attack=0.01
ampeg_release=0.35
</global>

<group>
group_label=PP
lpc_hicc1=42
lpc_locc1=0

<region>
end=328620
hikey=g#4
hivel=127
lokey=g4
loop_end=280263
loop_mode=loop_continuous
loop_start=110641
loop_xfade=20149
lovel=1
lpc=do1RQaNfBMKkExBCDwjSwYb8mkGS82rB8vcWQeqStsCv0X9AgpgrwPFTC0B2Ng+/qY2tvzKgN0Dng2XA0wU3QCx+YsCTK5JAEpcbwKE4Qr4Z7wxA0wABwLtpcL6BOCM/
lpc_rms=-44.17
offset=5700
pitch_keycenter=g#4
sample=SoloCello_sul_ponticello_PP_G#4.opus
</region>

<region>
end=296787
hikey=g#3
hivel=127
lokey=g3
loop_end=269242
loop_mode=loop_continuous
loop_start=99923
loop_xfade=18198
lovel=1
lpc=bOMEQk9otcKl0sNCPv18wvGaIkLLD+7BQ7SdQZ8cWsHaNDdB93wVwaq4K0ERuo7BdB6RQTWUnMBicSTBpAdBQeKZq8A6RtNAZxgnwRHTDUEIOIvAc5s5QPyGosB3vj1A
lpc_rms=-37.71
offset=15162
pitch_keycenter=g#3
sample=SoloCello_sul_ponticello_PP_G#3.opus
</region>

<region>
end=300543
hikey=g#2
hivel=127
lokey=g2
loop_end=280126
loop_mode=loop_continuous
loop_start=101188
loop_xfade=18428
lovel=1
lpc=LFmaQryOWcMDDlZDph+twkz1L0I9bWzCR9H7QWKlqMBpIgpBTft7wbOUNEHhbgTAkJYlwAQzkkFw/8/BG4UVQSrCB8Dsg0FB6C9XwR83PcDcRGdB+MBwQPZersGhtDFB
lpc_rms=-35.96
pitch_keycenter=g#2
sample=SoloCello_sul_ponticello_PP_G#2.opus
</region>

<region>
end=369049
hikey=B6
hivel=127
lokey=f5
loop_end=301180
loop_mode=loop_continuous
loop_start=124253
loop_xfade=22628
lovel=1
lpc=i0P3QPRgiMGftIZBTicnwRM040B4v8XASY2rQANlgMB15SRA1mvwv6hSDEDLER3AkLPOP9Zr/r4CS9E+paE2v5sar78m/ENAVNC8v6ahCL/Heak+qk5iP4vhr785voc/
lpc_rms=-51.98
offset=11330
pitch_keycenter=F#5
sample=SoloCello_sul_ponticello_PP_F#5.opus
</region>

<region>
end=358494
hikey=f#4
hivel=127
lokey=f4
loop_end=297881
loop_mode=loop_continuous
loop_start=120699
loop_xfade=21981
lovel=1
lpc=aiE/QQnc6MHnE+lBkPOdwYE2ZUFTjxrBe2L9QBwy98DaxG5Aoe8Kv5CmWD8dRwfAnFISQMieSD+xgZTAikDBQKFAzMDqab1AuOWRwJdjeUDfeX/ALf2JQDnUfsDUcPQ/
lpc_rms=-45.63
offset=11266
pitch_keycenter=f#4
sample=SoloCello_sul_ponticello_PP_F#4.opus
</region>

<region>
end=359217
hikey=f#3
hivel=127
lokey=f3
loop_end=293806
loop_mode=loop_continuous
loop_start=120943
loop_xfade=22026
lovel=1
lpc=DmSNQen9MsI53S9CJMnJwbzEbkEyGhPBocbCQJyu4MCfAbBAwXFxwIJjrUBt3tfAMIqaQJ87Ij4crYHAEjMpQDocBT8GFmg+gIKFv8O+fb7eLZI/EqSQv2Iq2z75rz89
lpc_rms=-46.29
offset=11291
pitch_keycenter=f#3
sample=SoloCello_sul_ponticello_PP_F#3.opus
</region>

<region>
end=313325
hikey=f#2
hivel=127
lokey=f2
loop_end=288071
loop_mode=loop_continuous
loop_start=105492
loop_xfade=19212
lovel=1
lpc=HfeYQrkWVcOUkVVDHCHFwgRFUkLtOkjC3SKNQYBHU8BczdxAs/jtv04vW0AbwfDAsxaeQBA+7UDwdJHBd9U1QQA8AkD6dlg/nB0owcwuEUDSjf5AN/c4QDGKXMFIROBA
lpc_rms=-36.59
offset=2050
pitch_keycenter=f#2
sample=SoloCello_sul_ponticello_PP_F#2.opus
</region>

<region>
end=318802
hikey=e5
hivel=127
lokey=d#5
loop_end=301874
loop_mode=loop_continuous
loop_start=107336
loop_xfade=19547
lovel=1
lpc=qBlbQUk868GEPORB+2OjwTKBbUER9RrB58TVQDgwucCO0HNAvDphP55uQMAOqNc/wEGsPx3L6b9xZyNAOKPav/9GOr420zvAe0W0QMd3r8DO3q9AfA6Cv3GHDsDwkNM/
lpc_rms=-43.83
offset=28126
pitch_keycenter=e5
sample=SoloCello_sul_ponticello_PP_E5.opus
</region>

<region>
end=343101
hikey=e4
hivel=127
lokey=d#4
loop_end=284790
loop_mode=loop_continuous
loop_start=115517
loop_xfade=21037
lovel=1
lpc=JuVMQVB2/MGpAQNC0BitwfXAVEEd3vnA5G2xQJskksDJtNk/+/f8vpbH2z/rdbi/vRGdvQlnJUAbWIPAzqpAQEUeGMCMUh1A9sK4v0SKdj/f16y+qteUPwoR5L+UyB8/
lpc_rms=-45.00
offset=4955
pitch_keycenter=e4
sample=SoloCello_sul_ponticello_PP_E4.opus
</region>

<region>
end=301805
hikey=e3
hivel=127
lokey=d#3
loop_end=267032
loop_mode=loop_continuous
loop_start=101613
loop_xfade=18505
lovel=1
lpc=7dYHQuLvtsLlZLxCSY5Rwg/R3kEVr6fBZt5lQUGav8DBXQTAGlN1P0ROx0CB4kPB/RduQQAxlMDyHAfB8e8pQZ/aDcE9Rd1AyVAzwLTw3b+KvnxA9kiyv/h1EMCkMr4/
lpc_rms=-42.22
offset=120
pitch_keycenter=e3
sample=SoloCello_sul_ponticello_PP_E3.opus
</region>

<region>
end=356753
hikey=e2
hivel=127
lokey=d#2
loop_end=284779
loop_mode=loop_continuous
loop_start=120113
loop_xfade=21874
lovel=1
lpc=icU2QnMV9MKxs+ZC+kxIwoaF7UEu8vLBcAJPQXy/K8D0HCNANworwIZ66z9sTr+/B3KaP7ipDUGWk2XBASewQPnJWT/I9Jw/U56LwKG3Hj/5EY5A/zclQH2/JcHe4KpA
lpc_rms=-40.59
offset=5073
pitch_keycenter=e2
sample=SoloCello_sul_ponticello_PP_E2.opus
</region>

<region>
end=343773
hikey=d5
hivel=127
lokey=c#5
loop_end=289702
loop_mode=loop_continuous
loop_start=115743
loop_xfade=21079
lovel=1
lpc=wUo+QaAV28E6vN9BhOilwTNXd0Ei6PLAkL1+QA4cmsAWU0NAJzoDwOPWSEDcnuW/TVzAP1j93b+W+c+9ZJwEQAs0s7869Mi/oMhXQCmfkcAtPr5AD8ujwID93T9J/hG9
lpc_rms=-44.79
offset=6473
pitch_keycenter=d5
sample=SoloCello_sul_ponticello_PP_D5.opus
</region>

<region>
end=330079
hikey=d4
hivel=127
lokey=c#4
loop_end=279200
loop_mode=loop_continuous
loop_start=111132
loop_xfade=20239
lovel=1
lpc=GK5ZQUafB8LqmApCwCS5wcEQfUE1NhzBcXW4QAKBgMBAt5E/orY+v4/RNkCUkBvADwpUvmOKfUDxF//AMBIHQWzl1MCDMatALF0vwLWBIj9ndb4+IdygvsV9K79VrCc/
lpc_rms=-45.91
offset=1403
pitch_keycenter=d4
sample=SoloCello_sul_ponticello_PP_D4.opus
</region>

<region>
end=311787
hikey=d3
hivel=127
lokey=c#3
loop_end=282806
loop_mode=loop_continuous
loop_start=104974
loop_xfade=19117
lovel=1
lpc=+E8aQk9Gx8J9IbxCXe0qwnt0mEFYL23BmHggQV5VHcF56r1A6Dl8vu3/70Da4ozB+fNrQb+oub1VuDzB+YcwQUQJ2cDSg7JAaVK0v8XxPsAW0aA/bN5GP3WCwz+OLLu/
lpc_rms=-41.48
offset=552
pitch_keycenter=d3
sample=SoloCello_sul_ponticello_PP_D3.opus
</region>

<region>
end=347521
hikey=d2
hivel=127
lokey=c#2
loop_end=292860
loop_mode=loop_continuous
loop_start=117005
loop_xfade=21308
lovel=1
lpc=9CpAQo3x6sLchrVChFDCwTrPrkHGPt3BL7T3QKS0xL/V2zlAOExav8k/lz7rvUe+mdv+P0kqW0AvN/7AYZcpQEr89b4W2B1AVZPtv4T/tb7lNjI+g/9sQJA2pcCcoQZA
lpc_rms=-40.86
offset=8211
pitch_keycenter=d2
sample=SoloCello_sul_ponticello_PP_D2.opus
</region>

<region>
end=362307
hikey=c5
hivel=127
lokey=b4
loop_end=296722
loop_mode=loop_continuous
loop_start=121983
loop_xfade=22215
lovel=1
lpc=bcHlQK6lecGuwHNBn0M0wVDmE0Fs9wHB5YzoQHrUtsBeoX5AO69twIEMikCNvELANkTaPquBUz/w/dY9oDAHvyEaUbzfk+Y+UdcEP/V8rr/DsY8/QMRRvwNyCb8nwXs/
lpc_rms=-49.50
offset=8138
pitch_keycenter=c5
sample=SoloCello_sul_ponticello_PP_C5.opus
</region>

<region>
end=353666
hikey=c4
hivel=127
lokey=b3
loop_end=290864
loop_mode=loop_continuous
loop_start=119074
loop_xfade=21685
lovel=1
lpc=mNpxQfMbFsKXLRZCJL3HwfKamkFR23bB0HUrQbbb2cDsIYJAQcSTwPjP5kDFWRXBh0LcQKCQpT37W5PAv9KGQEGYbsA1tZRAng9XwDDo4z+OZGi+E2fjv175YD9ZxN0+
lpc_rms=-43.44
offset=3378
pitch_keycenter=c4
sample=SoloCello_sul_ponticello_PP_C4.opus
</region>

<region>
end=322671
hikey=c3
hivel=127
lokey=b2
loop_end=282455
loop_mode=loop_continuous
loop_start=108638
loop_xfade=19785
lovel=1
lpc=Fh7kQb2jkcL5wIpC7ScSwoZ5q0HO0HnBVTklQTHiAMG3ggtA5bERQIdvNECgYxTBrGLzQK9XP0DG6h/BgaQFQQYKz8CihKpAzhytv+rf3r+xYHC+YJ1jP08osT+sxJS/
lpc_rms=-41.52
offset=3016
pitch_keycenter=c3
sample=SoloCello_sul_ponticello_PP_C3.opus
</region>

<region>
end=371183
hivel=127
key=c2
loop_end=288486
loop_mode=loop_continuous
loop_start=124972
loop_xfade=22759
lovel=1
lpc=mpWGQoy/MMNCkRtDmg5awkH76EFZNQHClTFPQSJuwcD0ce1APqybwFCWIEAS2xbAQ+1ZQJ9mLkFMtZ7B5HsIQXBIVMAHnE9A6jWwv9M/Kj5VTvo/uMWxPwcy1MD+gW9A
lpc_rms=-37.89
offset=9366
sample=SoloCello_sul_ponticello_PP_C2.opus
</region>

<region>
end=361195
hikey=a#4
hivel=127
lokey=a4
loop_end=291707
loop_mode=loop_continuous
loop_start=121609
loop_xfade=22147
lovel=1
lpc=/EANQYV/p8EaeqdBI9BawacPLkH2ySnBvEcOQSA0x8CmrRBAyMQDQN/xfcC39TJAsnK9vVuSR76vJe6/CWDlP4q5TT/ZUAjApHkWP/C7bz874y6/tuG+PwjDF8A31Ko/
lpc_rms=-48.72
offset=12870
pitch_keycenter=a#4
sample=SoloCello_sul_ponticello_PP_A#4.opus
</region>

<region>
end=337763
hikey=a#3
hivel=127
lokey=a3
loop_end=280336
loop_mode=loop_continuous
loop_start=113719
loop_xfade=20710
lovel=1
lpc=1ViRQUw6O8K1eD5CHtPiwRg4iEEcqELBQabtQKhsvsB8zPVAPmXKwG8soEBSLwrBQib5QDkNk75pQs/AO5jkQNVNfcDdnCJAetGVv39O6j1cLPW+nEBrP3SC+r9WsrE/
lpc_rms=-44.64
offset=6623
pitch_keycenter=a#3
sample=SoloCello_sul_ponticello_PP_A#3.opus
</region>

<region>
end=351718
hikey=a#2
hivel=127
lokey=a2
loop_end=288672
loop_mode=loop_continuous
loop_start=118418
loop_xfade=21566
lovel=1
lpc=1mB1Qt9aHcOc+gJDFYoVwjM8zEH03AvCRHQVQc/Xh8CwehBB3ZxMwCja6UCZqxnBexUVPwB9FUH3fdnAaPXFvz/ywL8lhuZAYe5ewLzKBsDMnGhAphpfP9HC8MCE+ptA
lpc_rms=-39.87
offset=4216
pitch_keycenter=a#2
sample=SoloCello_sul_ponticello_PP_A#2.opus
</region>
</group>

<group>
group_label=MF
lpc_hicc1=84
lpc_locc1=43

<region>
end=301722
hikey=g#4
hivel=127
lokey=g4
loop_end=287802
loop_mode=loop_continuous
loop_start=101585
loop_xfade=18500
lovel=1
lpc=MElaQVHfA8LvZQdCM7bDwTNGm0G3G5bBlF6EQbubHcFtBVdAmE7xP5AjasAH9OY/MBijv01mHEB/SILA9m6YQKnVd8BLfn9APppkwJJBSkDnVn3AmY2ZQJnTj8B8zuo/
lpc_rms=-28.58
offset=3681
pitch_keycenter=g#4
sample=SoloCello_sul_ponticello_MF_G#4.opus
</region>

<region>
end=303964
hikey=g#3
hivel=127
lokey=g3
loop_end=284955
loop_mode=loop_continuous
loop_start=102340
loop_xfade=18638
lovel=1
lpc=2636QUjSpMI3La1CR35owh6ZKkKlxQ/CUKnkQXqjmsEiHipBA4IowYFWXkFjKmDBGdUbQQF0QkD5Bk3BzWEYQcqbiMDIMs9A0FzzwOoLnj+VCZZABPZ3wH9lxr7ZBqo/
lpc_rms=-26.52
offset=2317
pitch_keycenter=g#3
sample=SoloCello_sul_ponticello_MF_G#3.opus
</region>

<region>
end=285497
hikey=g#2
hivel=127
lokey=g2
loop_end=262516
loop_mode=loop_continuous
loop_start=96122
loop_xfade=17505
lovel=1
lpc=xLxOQtO7DcPm9RNDpYW2wtUogUL5wETCpgfkQYdPhcGy6EFBRh9YwQMpg0G2n5vBjZUzQfMjgkG1DhPCfkT2QcDmacFC5xpBv/U5weCihUDA4+9AntSIwKtqtcBSHotA
lpc_rms=-23.88
offset=1234
pitch_keycenter=g#2
sample=SoloCello_sul_ponticello_MF_G#2.opus
</region>

<region>
end=289031
hikey=B6
hivel=127
lokey=f5
loop_end=270734
loop_mode=loop_continuous
loop_start=97312
loop_xfade=17722
lovel=1
lpc=RMfAQCQYOcFgaDBBEUgFwfol4kB5yp3AXlhhQBMUL8De4SFAXfsAwL/n2D98UdG+lsgyv7tjIUAW0znA6AweQDD0QMD/0HBADV44wAujYkA1uYTA99FvQFnpHcAgcb0/
lpc_rms=-35.87
offset=717
pitch_keycenter=F#5
sample=SoloCello_sul_ponticello_MF_F#5.opus
</region>

<region>
end=292128
hikey=f#4
hivel=127
lokey=f4
loop_end=273944
loop_mode=loop_continuous
loop_start=98355
loop_xfade=17912
lovel=1
lpc=pKAHQSUunsFJv5pBcmZFwRnlFEHDgRDBmyDfQIACU8DUiJw/hzHFv3HP8T+4WLe/CrWMPMCuBUCLvTvAt93oP7gL076AdbM+y4hav5P/Kz+wLpG+C9kbP3zML79u9sA+
lpc_rms=-33.96
pitch_keycenter=f#4
sample=SoloCello_sul_ponticello_MF_F#4.opus
</region>

<region>
end=306779
hikey=f#3
hivel=127
lokey=f3
loop_end=286145
loop_mode=loop_continuous
loop_start=103288
loop_xfade=18810
lovel=1
lpc=EC+JQVhFLMJDLDFC78j1wSfzv0FJc67B0H6ZQdAvXcGPIx1BKyQ/wYUBOEFogOjA+wyAQJPvNUDah/PAEDixQH9LbcCOLb1AEC7mwMLbd0Atbfa+IbDWP7ckbMDvXek/
lpc_rms=-30.99
offset=1919
pitch_keycenter=f#3
sample=SoloCello_sul_ponticello_MF_F#3.opus
</region>

<region>
end=298653
hikey=f#2
hivel=127
lokey=f2
loop_end=277374
loop_mode=loop_continuous
loop_start=100552
loop_xfade=18312
lovel=1
lpc=pURMQuOZDcNzLBNDpp2iwrNSR0KEqTLCTxfZQfq60sBBNdi/c3aEwKiKnEBiJ5ZAFW4xwTAcrEHUG+PBO512QRw0GkDFGZrA6qX1P68vCcEejFVBHTiIwEuV5MA5+adA
lpc_rms=-28.15
offset=1422
pitch_keycenter=f#2
sample=SoloCello_sul_ponticello_MF_F#2.opus
</region>

<region>
end=291012
hikey=e5
hivel=127
lokey=d#5
loop_end=262830
loop_mode=loop_continuous
loop_start=97979
loop_xfade=17843
lovel=1
lpc=MsbzQANog8EeG3tBrBwwwaFqFUHxRQHBC87VQAfPgcAQCWA/1c5aP53mhb/xSXA/kR31PW/G4r41NJI/xajYvxzxfz+THNo+yTMfwB2QkUCAL4PAn8FhQHzOR8AKF9g/
lpc_rms=-36.28
offset=5148
pitch_keycenter=e5
sample=SoloCello_sul_ponticello_MF_E5.opus
</region>

<region>
end=314115
hikey=e4
hivel=127
lokey=d#4
loop_end=300507
loop_mode=loop_continuous
loop_start=105758
loop_xfade=19260
lovel=1
lpc=1lNRQToi58HfgtxBMnGXwdAOf0GAgEvBZjYRQZeE9sACJNRAAaGmwG/xlkBQ3aPAYOSCQDythT4ki2XAm4KDQHzbYcB0W4JACxRVwEChM0Cf9hDAvmbvP1SUib8spOs+
lpc_rms=-29.48
offset=684
pitch_keycenter=e4
sample=SoloCello_sul_ponticello_MF_E4.opus
</region>

<region>
end=309829
hikey=e3
hivel=127
lokey=d#3
loop_end=296797
loop_mode=loop_continuous
loop_start=104315
loop_xfade=18997
lovel=1
lpc=9w3jQT/nmcLGraVCHcRZwnIUG0JnNA7C8t4AQu3nvsFpN05B3LsnwQCwUEFMJjPBuDGgQPI21kAeinfByplDQWiT4cCN5AlBS00OwYZnnEAq0BHALFEzQF54csC+a+c/
lpc_rms=-30.23
offset=699
pitch_keycenter=e3
sample=SoloCello_sul_ponticello_MF_E3.opus
</region>

<region>
end=293660
hikey=e2
hivel=127
lokey=d#2
loop_end=272661
loop_mode=loop_continuous
loop_start=98871
loop_xfade=18006
lovel=1
lpc=1BqNQiCwR8M6HVFDCN3ewimJhkLsuoDC9vIRQlEAg8Am3QLBsXsNQK3PPMCZ9YdBvIW4wX8sA0LtXCjCZPmqQSJx+EDbqOnA9br1v1NbC8EDhZJBYSqMwFT6RsHchABB
lpc_rms=-24.47
offset=3168
pitch_keycenter=e2
sample=SoloCello_sul_ponticello_MF_E2.opus
</region>

<region>
end=292050
hikey=d5
hivel=127
lokey=c#5
loop_end=275080
loop_mode=loop_continuous
loop_start=98329
loop_xfade=17907
lovel=1
lpc=ZZOfQIBUEsGIjfJAqye8wBDPlUBofw7As62uP7y8wL8fSrE/FdfHv1f+CEDDAeu/+t5XPz6Qyj2hCFW+1E/DvUj6GzwaHm++rVT1PmliTz+05lq/9h51P2r88L96S5k/
lpc_rms=-38.20
pitch_keycenter=d5
sample=SoloCello_sul_ponticello_MF_D5.opus
</region>

<region>
end=300903
hikey=d4
hivel=127
lokey=c#4
loop_end=277491
loop_mode=loop_continuous
loop_start=101309
loop_xfade=18450
lovel=1
lpc=azXjQDeDfMGj6G1BtFIZwWm55kBkwMbAs4yIQAvBRL+ectu/yx++P6RmMr/8u0g/7mD6v7eZSUDLu0vAzq8NQIi/zL/Hz/o/7C3rvzf2Zz9plFo+s2i3vdvoDb9Gd+U+
lpc_rms=-34.49
offset=676
pitch_keycenter=d4
sample=SoloCello_sul_ponticello_MF_D4.opus
</region>

<region>
end=301978
hikey=d3
hivel=127
lokey=c#3
loop_end=280655
loop_mode=loop_continuous
loop_start=101671
loop_xfade=18516
lovel=1
lpc=woizQU02ZMKnU2ZCCmwOwk1xvEFDGInBFVAoQY/3osDJSpE/VhoPwF7JQ0A/aizAuhNJP/FdBEFTpHDBNnQXQaZWbr9H53U/GYwtwNiENb59NThA1irUvwzXdr60aMk+
lpc_rms=-30.85
offset=961
pitch_keycenter=d3
sample=SoloCello_sul_ponticello_MF_D3.opus
</region>

<region>
end=299418
hikey=d2
hivel=127
lokey=c#2
loop_end=276986
loop_mode=loop_continuous
loop_start=100809
loop_xfade=18359
lovel=1
lpc=4uBcQpdfGMMo6xtDzYChwk/7OkJgKTXC0zrWQadfnsD8hAfABKV3wIVqlUArr41Ab1E5wYPlzEHeOQnCUAyWQdXr/D9RYzXAYDB/wPWOF8ALlQlBojtgP+7UPMG2pd9A
lpc_rms=-28.50
pitch_keycenter=d2
sample=SoloCello_sul_ponticello_MF_D2.opus
</region>

<region>
end=347356
hikey=c5
hivel=127
lokey=b4
loop_end=282052
loop_mode=loop_continuous
loop_start=116949
loop_xfade=21298
lovel=1
lpc=PzMoQQXWxsG6osxBlp+ZwfdZaEHczQXBG3CtQAPU2MCp56BAiRxtv7poBD9McynANl1TQBnM87+btFe/tvCHQG18gsBj4pM/0pKmPpFiXz8SdTzA+I9xQEeNN8BADK0/
lpc_rms=-33.97
offset=198
pitch_keycenter=c5
sample=SoloCello_sul_ponticello_MF_C5.opus
</region>

<region>
end=310773
hikey=c4
hivel=127
lokey=b3
loop_end=284929
loop_mode=loop_continuous
loop_start=104632
loop_xfade=19055
lovel=1
lpc=XPIGQeRelMGXXoNBz+UWwSum50Azy9PAil5LQJhbpz9okivASXWcP7ijcr7wgkW+SRwzvMxB9j+yvUTAY7QeQHzOQ7+Fjfi+/9umP7Jqzb/dMas/c0gxv9wnqr2/Jjs+
lpc_rms=-34.83
offset=1338
pitch_keycenter=c4
sample=SoloCello_sul_ponticello_MF_C4.opus
</region>

<region>
end=294980
hikey=c3
hivel=127
lokey=b2
loop_end=277121
loop_mode=loop_continuous
loop_start=99315
loop_xfade=18087
lovel=1
lpc=AfzjQeOBk8Kx+JBCuVUkwq8H1kEiVJ/Bs8MUQdzcWMDAxCVAuk99wNbK20D1HgbBXJNHP16Ba0F4D6zBMc54Qf213cCJayBAgWphP5AAscCTMNFAuOFMwLPe5r5QeWU/
lpc_rms=-28.89
offset=613
pitch_keycenter=c3
sample=SoloCello_sul_ponticello_MF_C3.opus
</region>

<region>
end=311294
hivel=127
key=c2
loop_end=293628
loop_mode=loop_continuous
loop_start=104808
loop_xfade=19087
lovel=1
lpc=Qpd1Qr6ELcNA0DRDwUC/whsubUL+KWfC7UYJQmylXMEs5B1BjjsvwW4X0UBb4x5AZPzbwMK5o0G5ywzCidfDQQ6pH8BiBek/MMA/wTPsm0C/QsxAtuKIv5YZDMEna7RA
lpc_rms=-28.11
offset=997
sample=SoloCello_sul_ponticello_MF_C2.opus
</region>

<region>
end=300417
hikey=a#4
hivel=127
lokey=a4
loop_end=282862
loop_mode=loop_continuous
loop_start=101146
loop_xfade=18420
lovel=1
lpc=ZR3xQIx1iMH2LHtBUK0awT3hCkFSGAHBd5amQI43RsCxLxBAeN7dv40Cwj8eIn+/0Mv4PvRcrz73Y/m/PxFMQFBxOcC4nAlAj2kJwO3jBECOWIO/ZKftP9D2SMA+mdA/
lpc_rms=-35.33
offset=4557
pitch_keycenter=a#4
sample=SoloCello_sul_ponticello_MF_A#4.opus
</region>

<region>
end=295978
hikey=a#3
hivel=127
lokey=a3
loop_end=277314
loop_mode=loop_continuous
loop_start=99651
loop_xfade=18148
lovel=1
lpc=ye+IQScqLMIUijpC9PcIwimB1kEVr8PBFWmdQe35WMGH6BlBAbf7wP5o70AfjhPB4DnFQIHtV0CCvTrBmHJkQVqJVsGHLDhBTD8Jwc1lg0BRt569PNMPvY8Jlb+ivWA/
lpc_rms=-31.19
offset=1734
pitch_keycenter=a#3
sample=SoloCello_sul_ponticello_MF_A#3.opus
</region>

<region>
end=314906
hikey=a#2
hivel=127
lokey=a2
loop_end=296305
loop_mode=loop_continuous
loop_start=106024
loop_xfade=19309
lovel=1
lpc=QuoxQghq5cL+keFCZROEwpo1P0LB7hvC8uWoQSipJ8H69gVB8dAFwQPT0EDo7njAad6/wHDpy0F8c/rBy62EQarUl8C0yfpAFMIpwZ2NLkCj8ndAKtSzvhLuysDmjJVA
lpc_rms=-24.52
offset=368
pitch_keycenter=a#2
sample=SoloCello_sul_ponticello_MF_A#2.opus
</region>
</group>

<group>
group_label=FF
lpc_hicc1=127
lpc_locc1=85

<region>
end=325973
hikey=g#4
hivel=127
lokey=g4
loop_end=287884
loop_mode=loop_continuous
loop_start=109750
loop_xfade=19987
lovel=1
lpc=i0sMQYaYgsE8tmZBMe0zwZfxJUFm6hPBiAsJQXQ98cDItbVA7JBnwI6FbkC51YfAAaR+QN+HY8DUi6ZAWNuowBHMNkABUTa/ylovP9LZjr2f7B6/3LcCve9J5D+XZ76/
lpc_rms=-23.80
pitch_keycenter=g#4
sample=SoloCello_sul_ponticello_FF_G#4.opus
</region>

<region>
end=302487
hikey=g#3
hivel=127
lokey=g3
loop_end=283903
loop_mode=loop_continuous
loop_start=101843
loop_xfade=18547
lovel=1
lpc=PT2oQel3S8JIO0ZC2OoEwkTK00HJ76nBp+1GQScFFMHdSSVBdX8GwaQj40A1+u7AuMWKQEd6gkDnBQ3B+A7lQLfTscCPT/BACrbUwBMtnz9r1wq/JWYVQFDaEMAkgZ8/
lpc_rms=-20.66
offset=333
pitch_keycenter=g#3
sample=SoloCello_sul_ponticello_FF_G#3.opus
</region>

<region>
end=301902
hikey=g#2
hivel=127
lokey=g2
loop_end=281361
loop_mode=loop_continuous
loop_start=101646
loop_xfade=18511
lovel=1
lpc=bh87Qt/kCMPfESRDvMfzwt5DsEJj24zCxW9JQpWKAcIdsK9BElCTwVgFHUGFzDxAgYQiwbDlnEExrtLBAimFQbYTl8BUG3NA3pR3wNzZYD7++hVA75vjPo9yecDx/gdA
lpc_rms=-18.39
offset=34
pitch_keycenter=g#2
sample=SoloCello_sul_ponticello_FF_G#2.opus
</region>

<region>
end=299132
hikey=B6
hivel=127
lokey=f5
loop_end=282509
loop_mode=loop_continuous
loop_start=100713
loop_xfade=18341
lovel=1
lpc=UcSvQCBPHsEu0QdBUFO0wMYhqUDyHnjAVmYLQMFv+b+iVSJA/gwKwFM/K0CW6yPAtffZP8bYRL9yijE/nZ7ZPmhYbb9Z7os/r5htv3UfjD8eXwG/EqpfP/cJib8z3GU/
lpc_rms=-29.59
offset=2266
pitch_keycenter=F#5
sample=SoloCello_sul_ponticello_FF_F#5.opus
</region>

<region>
end=292398
hikey=f#4
hivel=127
lokey=f4
loop_end=274291
loop_mode=loop_continuous
loop_start=98446
loop_xfade=17928
lovel=1
lpc=h6izQIj3O8FkDDlB1U8QwQoR7kDNZLbAkrOLQEO5W8B0YP0/Qj2av739wj/ox6e/0iprPx9kd76oaB0+lq0JvlF2Kr++vARA5XIQwA+Q5T+5SOu/kP7/P8Ezv7/oDR8/
lpc_rms=-28.62
pitch_keycenter=f#4
sample=SoloCello_sul_ponticello_FF_F#4.opus
</region>

<region>
end=338459
hikey=f#3
hivel=127
lokey=f3
loop_end=285224
loop_mode=loop_continuous
loop_start=113954
loop_xfade=20753
lovel=1
lpc=z/saQTyhrMHprqBBEMVgwQEkR0GBtzLBzH0CQdFBysBAsrFAgCa3wMSQwkDbEJTAx34aQMOtRz+3kw3A9JKEP/ArYL9kwRZAQ8v7v4nQLT8xuDa/q1BXPwkcrr+dnYM/
lpc_rms=-27.20
pitch_keycenter=f#3
sample=SoloCello_sul_ponticello_FF_F#3.opus
</region>

<region>
end=308710
hikey=f#2
hivel=127
lokey=f2
loop_end=278862
loop_mode=loop_continuous
loop_start=103938
loop_xfade=18929
lovel=1
lpc=UyzzQfVGp8JhZLhCM7p4wqh9M0KjNhPCPk60QYQiQcFv1CVBjFknwU6ZjkDekc0/JdlWwLPqJ0EnfmzB5Yr5QK3aib+7unRA1O8AwbOg+0AJHQXBhXMmQdNTHcGHu4JA
lpc_rms=-23.38
pitch_keycenter=f#2
sample=SoloCello_sul_ponticello_FF_F#2.opus
</region>

<region>
end=333876
hikey=e5
hivel=127
lokey=d#5
loop_end=281361
loop_mode=loop_continuous
loop_start=112411
loop_xfade=20472
lovel=1
lpc=hRbSQH7wVMFQiUlBzlAWwd6uAUH0HLnAholhQJ7JO8C5/2dArD5ewGvzJUBxVfe/ehj5P8A8T78KlCW/EW6bPwGqt78BOSBA1NDQv/B0Mz9N+pu/IzvmPyF+mr/Vxz8/
lpc_rms=-28.97
pitch_keycenter=e5
sample=SoloCello_sul_ponticello_FF_E5.opus
</region>

<region>
end=290408
hikey=e4
hivel=127
lokey=d#4
loop_end=272130
loop_mode=loop_continuous
loop_start=97776
loop_xfade=17806
lovel=1
lpc=AYsMQe4Um8EMPpdBrWZYwQgPL0HB7RXBLT3OQLkHjMDRNjNALYaBv0HhDj88nZW+RWhtv/T8JkAupB7AgeMCQKjOXcCpP6pAJXuSwKnDQ0AYez3A2DU4QId0r7+2vig+
lpc_rms=-24.49
offset=148
pitch_keycenter=e4
sample=SoloCello_sul_ponticello_FF_E4.opus
</region>

<region>
end=334116
hikey=e3
hivel=127
lokey=d#3
loop_end=281564
loop_mode=loop_continuous
loop_start=112492
loop_xfade=20486
lovel=1
lpc=PUVgQfOBB8IufgZCqW+7wSKLpEF2lpzBYoZwQQePMcEHRBFBTpYVwSAgMEFubiLBCovLQGZf57+SHke+9S0NP2ksIsCfKr9ApOmwwKyD8T9Usyi/UFOzPwsf9L8ctl4/
lpc_rms=-25.01
pitch_keycenter=e3
sample=SoloCello_sul_ponticello_FF_E3.opus
</region>

<region>
end=297183
hikey=e2
hivel=127
lokey=d#2
loop_end=279527
loop_mode=loop_continuous
loop_start=100057
loop_xfade=18222
lovel=1
lpc=zuclQuBV6sJWdgNDUHmwwjEjeUI+bk3CBR0FQvzsosHbRn1Brm8+wYZljkCCq9Y/3YJrwNttOEEePIbBoE8RQb89EcBugMdAeoQuwQTPM0E/UEvBHDFoQS+cQcH59ZZA
lpc_rms=-19.99
pitch_keycenter=e2
sample=SoloCello_sul_ponticello_FF_E2.opus
</region>

<region>
end=354114
hikey=d5
hivel=127
lokey=c#5
loop_end=288597
loop_mode=loop_continuous
loop_start=119225
loop_xfade=21713
lovel=1
lpc=LzuuQIgCJ8ENGBhB9+DzwGgq3EAIdobApyJQQHSxgsCEvnFAwgd+wIpak0C+B13AZToGQJAUZr8im5u9da4svQIeED8Ivtm+8LoaP7QBBL0Kyem9cSelPo0xRb9jjFc/
lpc_rms=-30.59
pitch_keycenter=d5
sample=SoloCello_sul_ponticello_FF_D5.opus
</region>

<region>
end=303888
hikey=d4
hivel=127
lokey=c#4
loop_end=282857
loop_mode=loop_continuous
loop_start=102314
loop_xfade=18633
lovel=1
lpc=L1fvQA9HfsGC0WdBA7QcwUro8EDJ9LTAYup2QNZXHcDjcgw/cUbzvi+MCkAFnC/AcwnFPxxFrj5yOii/fBQXPUOsk79uwDNAQfIIwLg4sT/EuDq/TyOLPn/U/b7peq0+
lpc_rms=-26.12
pitch_keycenter=d4
sample=SoloCello_sul_ponticello_FF_D4.opus
</region>

<region>
end=328570
hikey=d3
hivel=127
lokey=c#3
loop_end=282950
loop_mode=loop_continuous
loop_start=110624
loop_xfade=20146
lovel=1
lpc=8pWCQS6jHMKabBFC4dKnwfuseEGEdVXBScEhQeV6BMEXrahAzn6FwLOmkUDT6n3AV+3NP/YHhkCCzfnAOwW5QDjAL8ByB2tABPySwIyHRkByk+K/YaseQEGwTsCy668/
lpc_rms=-25.39
offset=570
pitch_keycenter=d3
sample=SoloCello_sul_ponticello_FF_D3.opus
</region>

<region>
end=299720
hikey=d2
hivel=127
lokey=c#2
loop_end=280134
loop_mode=loop_continuous
loop_start=100911
loop_xfade=18377
lovel=1
lpc=fOcaQgM21cK0yeFCnSSGwpaqLkIeERbCIue+QUVgV8HDcTNBKIwjwWrfZ0D7DjZAXeGzwIlBhUEAyb/BLbFlQc2qtcCSOBNBogAtweW/1EDEBOfAhHUzQQuhM8G+45lA
lpc_rms=-21.69
pitch_keycenter=d2
sample=SoloCello_sul_ponticello_FF_D2.opus
</region>

<region>
end=293775
hikey=c5
hivel=127
lokey=b4
loop_end=272207
loop_mode=loop_continuous
loop_start=98909
loop_xfade=18013
lovel=1
lpc=QAWfQJzFGMGZ9ghBLDbZwOLmzEBLjY7A2etCQJMDI8D9GBRAxa0QwFQrAkBaYva/BjrsP3BUib4OM3G/W+9/P8bVzL8oRipAzjXjv9whLT82oYC/98HkP4+w9r8xWoI/
lpc_rms=-31.19
offset=842
pitch_keycenter=c5
sample=SoloCello_sul_ponticello_FF_C5.opus
</region>

<region>
end=334980
hikey=c4
hivel=127
lokey=b3
loop_end=282292
loop_mode=loop_continuous
loop_start=112782
loop_xfade=20540
lovel=1
lpc=KmXMQJh8UsHRIzZB2PLNwAqQg0Cpm3jA0RY+QMMKk78q/cg+NpOKvzlWuz/8W9C/XfCnP2nAir771So89xS1vtOQz76f3N4/mOPOv/LlJz/+QiU+lnUIv8AXJz8cAFy+
lpc_rms=-27.87
pitch_keycenter=c4
sample=SoloCello_sul_ponticello_FF_C4.opus
</region>

<region>
end=297265
hikey=c3
hivel=127
lokey=b2
loop_end=276607
loop_mode=loop_continuous
loop_start=100084
loop_xfade=18227
lovel=1
lpc=rAc7QtXyB8NyBB5DZGTZwgK0k0J+WmvCP5YkQk++w8FvfzJB5H/NwCR0Xj+/0QVBN3ccwZ2xjEE04+jBxkmkQdSwlcDNgixAW/azwF7kET98y9RAymRAwFjxkcCG31JA
lpc_rms=-17.32
pitch_keycenter=c3
sample=SoloCello_sul_ponticello_FF_C3.opus
</region>

<region>
end=303660
hivel=127
key=c2
loop_end=281258
loop_mode=loop_continuous
loop_start=102237
loop_xfade=18619
lovel=1
lpc=+5lxQjYkJMNifCFDlHWdwtwGO0KO3iPC/C5yQZtr3D9YNY4/bfdBwbVwgkE5CRbBosNzv0EnlUFn8OvBAqajQWTICMFNpeVAFlOLwHh2fMCdmtg/AgQHQb1ZM8G3+ZtA
lpc_rms=-16.29
offset=1816
sample=SoloCello_sul_ponticello_FF_C2.opus
</region>

<region>
end=349625
hikey=a#4
hivel=127
lokey=a4
loop_end=273063
loop_mode=loop_continuous
loop_start=117713
loop_xfade=21437
lovel=1
lpc=GqmEQDCTAMF9X+1Ai4O8wMkeqkDSN3fAKwUfQBJKJMDfDzxApg8hwKWW+j+PrZy/PyHlPjo2Iz+FiXm/wIVFPxcvmr+rPto//1Kev8gHMj4LCrU9ZVwrP4+JML8G1oQ+
lpc_rms=-31.75
offset=551
pitch_keycenter=a#4
sample=SoloCello_sul_ponticello_FF_A#4.opus
</region>

<region>
end=299095
hikey=a#3
hivel=127
lokey=a3
loop_end=281427
loop_mode=loop_continuous
loop_start=100701
loop_xfade=18339
lovel=1
lpc=74d0QbvJCMKAAvdB3ACawarIbEHUKlLB2xEuQUcVL8HelzBBUuwXwahnAUHiPOvAsORaQCJzQkC3DLPAxXexQKXfu8AkC7ZAJJaSwKgoTkByPTHAojFBQHO1QMD5Ts0/
lpc_rms=-22.49
pitch_keycenter=a#3
sample=SoloCello_sul_ponticello_FF_A#3.opus
</region>

<region>
end=305608
hikey=a#2
hivel=127
lokey=a2
loop_end=288800
loop_mode=loop_continuous
loop_start=102893
loop_xfade=18739
lovel=1
lpc=jvwwQrXP/MJPFBJD0inLwnnDiUINx2XChTEsQoFPxcFaSEpBrnoqwQztZUBi4ShB3cNuwY8hlEGZw6XBDGQdQWE0uj/VmZE+1bHawADR80Akj9rA84oHQU3SF8FGWZNA
lpc_rms=-18.60
pitch_keycenter=a#2
sample=SoloCello_sul_ponticello_FF_A#2.opus
</region>
</group>